<svg width="1725" height="406" viewBox="0 0 1725 406" fill="none" xmlns="http://www.w3.org/2000/svg">
<g clip-path="url(#clip0_128_20)">
<path d="M2266.43 232.471C2277.79 240.654 2285.97 249.202 2290.59 258.025L2287.04 259.881C2289.69 264.936 2291 269.97 2291 275C2291 280.03 2289.69 285.064 2287.04 290.119L2290.59 291.975C2285.97 300.798 2277.79 309.346 2266.43 317.529L2264.09 314.282C2255.82 320.232 2245.75 326.033 2233.99 331.633L2235.71 335.245C2225.85 339.941 2214.86 344.472 2202.85 348.814L2201.49 345.053C2191.1 348.808 2179.92 352.427 2168 355.894L2169.12 359.735C2158.26 362.895 2146.8 365.925 2134.79 368.817L2133.86 364.928C2122.8 367.589 2111.27 370.134 2099.29 372.552L2100.09 376.473C2088.83 378.745 2077.2 380.905 2065.2 382.946L2064.53 379.003C2053.2 380.932 2041.54 382.755 2029.59 384.466L2030.16 388.425C2018.66 390.07 2006.9 391.611 1994.88 393.044L1994.41 389.072C1982.92 390.442 1971.2 391.712 1959.26 392.878L1959.65 396.859C1948.04 397.994 1936.23 399.03 1924.24 399.964L1923.93 395.976C1912.33 396.879 1900.55 397.686 1888.62 398.394L1888.86 402.387C1877.18 403.079 1865.36 403.675 1853.4 404.173L1853.23 400.177C1841.54 400.663 1829.72 401.055 1817.78 401.349L1817.88 405.348C1806.16 405.636 1794.34 405.831 1782.41 405.928L1782.38 401.928C1776.49 401.976 1770.57 402 1764.62 402C1758.15 402 1751.77 401.971 1745.47 401.914L1745.44 405.914C1732.36 405.796 1719.65 405.557 1707.31 405.2L1707.43 401.202C1694.33 400.824 1681.64 400.313 1669.37 399.676L1669.16 403.67C1656 402.987 1643.3 402.158 1631.06 401.19L1631.37 397.202C1618.24 396.164 1605.63 394.965 1593.55 393.613L1593.11 397.589C1579.89 396.111 1567.29 394.451 1555.28 392.619L1555.89 388.665C1542.69 386.651 1530.23 384.43 1518.49 382.017L1517.68 385.935C1504.43 383.212 1492.08 380.243 1480.59 377.048L1481.67 373.195C1468.55 369.547 1456.61 365.608 1445.78 361.412L1444.33 365.142C1431.31 360.096 1419.85 354.67 1409.89 348.912L1411.89 345.449C1399.76 338.443 1390 330.994 1382.39 323.225L1379.53 326.023C1369.6 315.879 1363.09 305.081 1359.73 293.82L1363.56 292.676C1361.84 286.91 1361 281.012 1361 275C1361 268.988 1361.84 263.09 1363.56 257.324L1359.73 256.18C1363.09 244.919 1369.6 234.122 1379.53 223.977L1382.39 226.775C1390 219.006 1399.76 211.557 1411.89 204.551L1409.89 201.088C1419.85 195.33 1431.31 189.904 1444.33 184.858L1445.78 188.588C1456.61 184.392 1468.55 180.453 1481.67 176.805L1480.59 172.952C1492.08 169.757 1504.43 166.788 1517.68 164.065L1518.49 167.983C1530.23 165.57 1542.69 163.349 1555.89 161.335L1555.28 157.381C1567.29 155.549 1579.89 153.889 1593.11 152.411L1593.55 156.387C1605.63 155.035 1618.24 153.836 1631.37 152.798L1631.06 148.81C1643.3 147.842 1656 147.013 1669.16 146.33L1669.37 150.324C1681.64 149.687 1694.33 149.176 1707.43 148.798L1707.31 144.8C1719.65 144.443 1732.36 144.204 1745.44 144.086L1745.47 148.086C1751.77 148.029 1758.15 148 1764.62 148C1770.57 148 1776.49 148.024 1782.38 148.072L1782.41 144.072C1794.34 144.169 1806.16 144.364 1817.88 144.652L1817.78 148.651C1829.72 148.945 1841.54 149.337 1853.23 149.823L1853.4 145.827C1865.36 146.325 1877.18 146.921 1888.86 147.613L1888.62 151.606C1900.55 152.314 1912.33 153.121 1923.93 154.024L1924.24 150.036C1936.23 150.97 1948.04 152.006 1959.65 153.141L1959.26 157.122C1971.2 158.288 1982.92 159.558 1994.41 160.928L1994.88 156.956C2006.9 158.389 2018.66 159.93 2030.16 161.575L2029.59 165.534C2041.54 167.245 2053.2 169.068 2064.53 170.997L2065.2 167.054C2077.2 169.095 2088.83 171.255 2100.09 173.527L2099.29 177.448C2111.27 179.866 2122.8 182.411 2133.86 185.072L2134.8 181.183C2146.8 184.075 2158.26 187.105 2169.12 190.265L2168 194.106C2179.92 197.573 2191.1 201.192 2201.49 204.947L2202.85 201.186C2214.86 205.528 2225.85 210.059 2235.71 214.755L2233.99 218.367C2245.75 223.967 2255.82 229.768 2264.09 235.718L2266.43 232.471Z" stroke="white" stroke-width="8" stroke-dasharray="36 36"/>
<path d="M14 286C291 286 317 286 329 116" stroke="white" stroke-width="8" stroke-dasharray="36 36"/>
<path d="M335.889 108.427L335.895 108.422L379.413 64.8994C379.414 64.8985 379.414 64.8977 379.415 64.8968C380.323 63.9924 381.043 62.917 381.534 61.7328C382.023 60.551 382.274 59.2842 382.272 58.0052C382.278 56.7279 382.032 55.462 381.548 54.2799C381.062 53.0946 380.347 52.0172 379.443 51.1097L379.44 51.1063L335.917 7.57911L335.917 7.5791L335.912 7.57372C334.081 5.75372 331.604 4.73217 329.023 4.73217C326.441 4.73217 323.964 5.75372 322.134 7.57372L322.134 7.57371L322.128 7.57911L278.606 51.1063L278.606 51.1063L278.6 51.1115C276.78 52.9424 275.759 55.419 275.759 58.0006C275.759 60.5821 276.78 63.0588 278.6 64.8897L278.605 64.8944L322.105 108.422L322.111 108.427C323.942 110.247 326.418 111.269 329 111.269C331.582 111.269 334.058 110.247 335.889 108.427Z" fill="#54E0FF" stroke="white" stroke-width="5.04348"/>
<circle cx="1464.5" cy="370.5" r="37.2878" fill="#54E0FF" stroke="white" stroke-width="3.57554"/>
</g>
<defs>
<clipPath id="clip0_128_20">
<rect width="1725" height="406" fill="white"/>
</clipPath>
</defs>
</svg>
