<svg width="49" height="70" viewBox="0 0 49 70" fill="none" xmlns="http://www.w3.org/2000/svg">
<path d="M24.5002 64.9166L23.3475 65.9577L24.5002 67.2338L25.6528 65.9577L24.5002 64.9166ZM24.5002 64.9166C25.6528 65.9577 25.653 65.9574 25.6534 65.957L25.6544 65.9558L25.658 65.9518L25.671 65.9374L25.7195 65.8833C25.7617 65.8361 25.8234 65.7667 25.9034 65.6762C26.0633 65.4951 26.2963 65.2293 26.5917 64.8863C27.1827 64.2004 28.0242 63.2055 29.033 61.9626C31.0491 59.4785 33.7398 55.9953 36.4335 52.0027C39.1243 48.0146 41.8374 43.4901 43.8825 38.9251C45.9184 34.3806 47.345 29.6814 47.345 25.3749C47.345 19.3161 44.9382 13.5054 40.6539 9.22116C36.3697 4.93692 30.559 2.53006 24.5002 2.53006C18.4413 2.53006 12.6306 4.93692 8.34641 9.22116C4.06217 13.5054 1.6553 19.3161 1.6553 25.3749C1.6553 29.6814 3.08191 34.3806 5.11787 38.9251C7.16295 43.4901 9.876 48.0146 12.5668 52.0027C15.2606 55.9953 17.9512 59.4785 19.9674 61.9626C20.9761 63.2055 21.8177 64.2004 22.4086 64.8863C22.7041 65.2293 22.937 65.4951 23.0969 65.6762C23.1769 65.7667 23.2387 65.8361 23.2808 65.8833L23.3293 65.9374L23.3423 65.9518L23.3459 65.9558L23.3469 65.957C23.3473 65.9574 23.3475 65.9577 24.5002 64.9166ZM24.5002 31.4259C22.8953 31.4259 21.3563 30.7884 20.2215 29.6536C19.0867 28.5188 18.4492 26.9797 18.4492 25.3749C18.4492 23.7701 19.0867 22.231 20.2215 21.0962C21.3563 19.9615 22.8953 19.3239 24.5002 19.3239C26.105 19.3239 27.6441 19.9615 28.7788 21.0962C29.9136 22.231 30.5511 23.7701 30.5511 25.3749C30.5511 26.1695 30.3946 26.9564 30.0905 27.6905C29.7864 28.4247 29.3407 29.0917 28.7788 29.6536C28.217 30.2155 27.5499 30.6612 26.8158 30.9653C26.0816 31.2694 25.2948 31.4259 24.5002 31.4259Z" fill="#54E0FF" stroke="black" stroke-width="3.10638"/>
</svg>
