<svg width="172" height="173" viewBox="0 0 172 173" fill="none" xmlns="http://www.w3.org/2000/svg">
<circle cx="86" cy="86.3708" r="86" fill="#12BADF"/>
<path d="M131.855 73.9429V60.0301C131.855 57.5495 130.869 55.1705 129.115 53.4164C127.361 51.6624 124.982 50.677 122.502 50.677H94.4423V44.5413C95.8686 43.2599 96.7806 41.4174 96.7806 39.3503C96.7806 37.4899 96.0415 35.7056 94.726 34.3901C93.4104 33.0745 91.6262 32.3354 89.7657 32.3354C87.9053 32.3354 86.121 33.0745 84.8055 34.3901C83.4899 35.7056 82.7509 37.4899 82.7509 39.3503C82.7509 41.4174 83.6628 43.2599 85.0891 44.5413V50.677H57.0297C54.5491 50.677 52.1701 51.6624 50.416 53.4164C48.662 55.1705 47.6766 57.5495 47.6766 60.0301V74.0505L47.3399 74.0739C46.1608 74.1579 45.0575 74.6856 44.2522 75.5509C43.4468 76.4161 42.9994 77.5544 43 78.7364V88.0895C43 89.3298 43.4927 90.5193 44.3697 91.3964C45.2468 92.2734 46.4363 92.7661 47.6766 92.7661V116.149C47.6766 118.63 48.662 121.009 50.416 122.763C52.1701 124.517 54.5491 125.502 57.0297 125.502H122.502C124.982 125.502 127.361 124.517 129.115 122.763C130.869 121.009 131.855 118.63 131.855 116.149V92.7661C133.095 92.7661 134.285 92.2734 135.162 91.3964C136.039 90.5193 136.531 89.3298 136.531 88.0895V79.0263C136.586 78.3006 136.47 77.5721 136.195 76.8985C135.25 74.6163 133.225 74.0692 131.855 73.9429ZM66.3829 78.7364C66.3829 73.5735 69.5255 69.3833 73.3977 69.3833C77.2699 69.3833 80.4126 73.5735 80.4126 78.7364C80.4126 83.8993 77.2699 88.0895 73.3977 88.0895C69.5255 88.0895 66.3829 83.8993 66.3829 78.7364ZM108.463 106.796C103.781 106.782 71.0594 106.796 71.0594 106.796V97.4427C71.0594 97.4427 103.8 97.4333 108.481 97.4427L108.463 106.796ZM106.134 88.0895C102.262 88.0895 99.1189 83.8993 99.1189 78.7364C99.1189 73.5735 102.262 69.3833 106.134 69.3833C110.006 69.3833 113.149 73.5735 113.149 78.7364C113.149 83.8993 110.006 88.0895 106.134 88.0895Z" fill="white"/>
</svg>
