<svg width="20" height="20" viewBox="0 0 20 20" fill="none" xmlns="http://www.w3.org/2000/svg">
<path d="M19.5026 9.7212L19.5026 9.72535C19.5029 9.84073 19.4804 9.95502 19.4363 10.0616C19.3921 10.1682 19.3273 10.265 19.2455 10.3464L19.2447 10.3472L11.096 18.4967C11.0959 18.4969 11.0957 18.497 11.0956 18.4971C10.9298 18.6618 10.7056 18.7542 10.4719 18.7542C10.2382 18.7542 10.014 18.6618 9.84816 18.4972C9.848 18.497 9.84783 18.4969 9.84767 18.4967L1.70426 10.3482C1.70415 10.3481 1.70404 10.348 1.70393 10.3479C1.53924 10.182 1.44681 9.95776 1.44681 9.72402C1.44681 9.49035 1.53918 9.26617 1.70377 9.10033C1.70393 9.10017 1.7041 9.1 1.70426 9.09984L9.85191 0.951336C9.85208 0.951171 9.85225 0.951007 9.85241 0.950843C10.0182 0.78625 10.2424 0.693877 10.4761 0.693877C10.7098 0.693877 10.934 0.786271 11.0998 0.950897C11.1 0.951043 11.1001 0.951189 11.1003 0.951335L19.2483 9.10017C19.2485 9.10037 19.2487 9.10056 19.2489 9.10076C19.3299 9.18224 19.394 9.27892 19.4375 9.38526C19.4812 9.49185 19.5033 9.60602 19.5026 9.7212Z" fill="#54E0FF" stroke="#14171A" stroke-width="0.944394"/>
</svg>
