<svg width="262" height="336" viewBox="0 0 262 336" fill="none" xmlns="http://www.w3.org/2000/svg">
<path d="M222.891 142.588C226.917 146.561 230.864 150.455 234.233 154.839L234.31 154.949C234.385 155.058 234.498 155.22 234.642 155.43C234.932 155.849 235.351 156.459 235.867 157.219C236.898 158.739 238.314 160.855 239.851 163.234C242.955 168.042 246.439 173.758 248.299 177.833L248.321 177.881L248.344 177.928L250.722 182.684C267.71 224.012 256.107 272.275 222.88 302.417C193.128 329.263 151.374 336.503 111.963 331.53L111.958 331.53C75.4005 326.983 41.2906 304.403 21.5798 272.866C16.0774 263.136 11.1908 252.232 8.66912 241.425L8.63552 241.281L8.58791 241.141C5.54086 232.179 4.44493 223.182 3.32361 213.839C1.22844 178.439 14.3033 141.203 38.747 116.056C29.8671 145.097 34.8144 178.317 53.8299 202.522C54.656 203.974 55.7387 205.264 57.026 206.33C61.2358 209.87 66.8856 211.424 72.4231 209.035C77.1606 207.121 80.8009 202.37 80.8009 196.933C80.8009 193.926 79.8708 191.602 79.1388 189.774L79.1051 189.69C79.103 189.684 79.1009 189.679 79.0988 189.674C56.8121 132.108 75.4667 64.9915 122.799 26.9791C134.282 17.761 147.311 9.38361 161.908 4.66762C147.202 39.3729 154.34 82.2597 181.538 108.913C187.677 114.956 194.364 120.012 200.969 124.89C201.625 125.374 202.279 125.857 202.933 126.338C208.882 130.722 214.717 135.02 220.218 139.94C221.11 140.831 222.002 141.711 222.891 142.588ZM179.62 272.944L179.658 272.912L179.695 272.878C191.561 262.001 198.6 244.365 198.028 228.238C198.023 225.225 197.623 222.393 196.829 219.573C194.209 206.055 186.851 197.152 178.625 189.427C176.199 187.148 173.586 184.875 171.005 182.63C169.308 181.153 167.624 179.688 166.015 178.241C161.855 174.499 157.902 170.626 154.471 166.17L154.454 166.148L154.437 166.126C150.18 160.805 146.571 153.979 143.018 146.872L140 140.836L137.541 147.12C132.255 160.629 131.899 172.959 134.2 187.147L134.201 187.157L134.203 187.166C134.83 190.881 135.683 194.441 136.537 197.862C136.686 198.46 136.835 199.052 136.983 199.64C137.69 202.448 138.371 205.155 138.937 207.88C140.293 214.41 140.917 220.753 139.46 227.637C135.77 243.223 123.318 258.698 102.314 263.64L97.0715 264.873L100.88 268.681C113.603 281.405 135.633 292.673 158.042 284.728C165.221 282.709 174.131 277.649 179.62 272.944Z" fill="#EE3737" stroke="black" stroke-width="6"/>
</svg>
