<svg width="124" height="124" viewBox="0 0 124 124" fill="none" xmlns="http://www.w3.org/2000/svg">
<path d="M66.5932 114.109L65.7991 111.224C68.2696 110.351 70.8049 108.81 72.7221 106.31C74.6283 103.825 76 100.293 76 95.2936C76 89.3197 72.2553 85.6059 69.2198 83.8232C69.2003 83.8442 69.1744 83.8854 69.1684 83.9567C68.9947 86.212 67.833 88.3105 66.1941 89.4438C65.3585 90.0217 64.3334 90.3883 63.2297 90.2881C62.1036 90.1859 61.0841 89.6145 60.2638 88.6617C57.8331 85.8384 56.8523 81.8202 56.8523 79.2253V76.1769C56.8523 75.7784 56.6583 75.4929 56.4308 75.349C56.2204 75.216 55.9679 75.1875 55.6897 75.3501C49.998 78.7331 42.8333 85.4914 42.8333 95.2936C42.8333 101.595 45.3437 105.594 48.5579 108.124C51.8343 110.702 55.9405 111.824 59.1149 112.094L59.0681 115.087C58.186 115.134 57.3198 115.166 56.4872 115.166C49.3793 115.166 38.7815 112.789 29.9289 105.645C21.0122 98.4503 14 86.5256 14 67.7346C14 52.7819 21.8754 42.7176 29.3676 37.014C29.3677 37.0138 29.3679 37.0137 29.3681 37.0136L30.2767 38.2071C34.2963 35.1381 39.4217 38.1916 39.9383 43.2239L40.3827 47.5536C40.92 52.8236 45.725 57.1481 50.1683 54.2599L66.5932 114.109ZM66.5932 114.109C74.8631 112.453 84.4161 108.639 91.9202 101.316C99.4617 93.9571 104.833 83.1485 104.833 67.7398C104.833 39.6137 84.2649 21.0083 69.6878 12.5341L66.5932 114.109ZM69.2004 83.8092C69.1975 83.8087 69.1949 83.8082 69.1928 83.8077C69.1875 83.8063 69.1907 83.8062 69.2025 83.8131L69.2045 83.8096L69.2004 83.8092ZM69.2004 83.8092L69.9567 82.5164L69.2004 83.8092Z" fill="#EE3737" stroke="black" stroke-width="3"/>
</svg>
