<svg width="262" height="336" viewBox="0 0 262 336" fill="none" xmlns="http://www.w3.org/2000/svg">
<path d="M236.549 153.067C232.255 147.467 227.029 142.613 222.175 137.76C209.669 126.56 195.482 118.533 183.535 106.773C155.722 79.52 149.562 34.5333 167.295 0C149.562 4.29333 134.069 14 120.815 24.64C72.4688 63.4667 53.4288 131.973 76.2021 190.773C76.9488 192.64 77.6955 194.507 77.6955 196.933C77.6955 201.04 74.8955 204.773 71.1621 206.267C66.8688 208.133 62.3888 207.013 58.8421 204.027C57.7764 203.146 56.8892 202.068 56.2288 200.853C35.1355 174.16 31.7755 135.893 45.9621 105.28C14.7888 130.667 -2.19787 173.6 0.228792 214.107C1.34879 223.44 2.46879 232.773 5.64213 242.107C8.25546 253.307 13.2955 264.507 18.8955 274.4C39.0555 306.693 73.9621 329.84 111.482 334.507C151.429 339.547 194.175 332.267 224.789 304.64C258.949 273.653 270.895 224 253.349 181.44L250.922 176.587C247.002 168 236.549 153.067 236.549 153.067ZM177.562 270.667C172.335 275.147 163.749 280 157.029 281.867C136.122 289.333 115.215 278.88 102.895 266.56C125.109 261.333 138.362 244.907 142.282 228.293C145.455 213.36 139.482 201.04 137.055 186.667C134.815 172.853 135.189 161.093 140.229 148.213C143.775 155.307 147.509 162.4 151.989 168C166.362 186.667 188.949 194.88 193.802 220.267C194.549 222.88 194.922 225.493 194.922 228.293C195.482 243.6 188.762 260.4 177.562 270.667Z" fill="#54E0FF"/>
</svg>
