<svg width="211" height="48" viewBox="0 0 211 48" fill="none" xmlns="http://www.w3.org/2000/svg">
<path d="M1.71539 1.6651C4.91469 -1.44041 11.8502 -0.0505298 19.1214 4.57517C26.3925 -0.0505298 33.3281 -1.44041 36.5274 1.6651C39.7267 4.77062 38.2948 11.5029 33.5294 18.5608C38.2948 25.6188 39.7267 32.3511 36.5274 35.4566C33.3281 38.5621 26.3925 37.1722 19.1214 32.5465C11.8502 37.1722 4.91469 38.5621 1.71539 35.4566C-1.48391 32.3511 -0.0520558 25.6188 4.71334 18.5608C-0.0520558 11.5029 -1.48391 4.77062 1.71539 1.6651ZM27.0413 10.8731C28.4061 12.2195 29.659 13.5877 30.8223 14.9558C33.9098 10.3301 35.0284 6.35595 33.3505 4.7489C31.6949 3.12014 27.6007 4.20598 22.8353 7.20291C24.2447 8.33219 25.6542 9.54834 27.0413 10.8731ZM11.2014 26.2486C9.8367 24.9022 8.58383 23.534 7.42044 22.1659C4.333 26.7916 3.21437 30.7657 4.89232 32.3728C6.5479 34.0016 10.6421 32.9157 15.4075 29.9188C13.998 28.7895 12.5885 27.5734 11.2014 26.2486ZM4.89232 4.7489C3.21437 6.35595 4.333 10.3301 7.42044 14.9558C8.58383 13.5877 9.8367 12.2195 11.2014 10.8731C12.5885 9.54834 13.998 8.33219 15.4075 7.20291C10.6421 4.20598 6.5479 3.12014 4.89232 4.7489ZM14.3784 23.1648C15.9445 24.685 17.5553 26.0749 19.1214 27.3128C20.6875 26.0749 22.2983 24.685 23.8644 23.1648C25.4305 21.6446 26.8624 20.081 28.1376 18.5608C26.8624 17.0407 25.4305 15.477 23.8644 13.9569C22.2983 12.4367 20.6875 11.0468 19.1214 9.80894C17.5553 11.0468 15.9445 12.4367 14.3784 13.9569C12.8123 15.477 11.3804 17.0407 10.1052 18.5608C11.3804 20.081 12.8123 21.6446 14.3784 23.1648ZM33.3505 32.3728C35.0284 30.7657 33.9098 26.7916 30.8223 22.1659C29.659 23.534 28.4061 24.9022 27.0413 26.2486C25.6542 27.5734 24.2447 28.7895 22.8353 29.9188C27.6007 32.9157 31.6949 34.0016 33.3505 32.3728Z" fill="white"/>
<path d="M19.8005 22.1939C21.393 21.8844 23.4522 20.7722 23.4522 17.8967C23.4522 15.2803 21.4791 13.5377 20.0603 12.7371C19.745 12.5591 19.3767 12.793 19.3767 13.1465V14.0505C19.3767 14.7635 19.068 16.0651 18.2101 16.6066C17.772 16.883 17.2982 16.4691 17.2452 15.9647L17.2014 15.5503C17.1504 15.0687 16.6451 14.7764 16.2487 15.0701C15.536 15.5968 14.7917 16.5215 14.7917 17.8962C14.7917 21.4126 17.4862 22.2923 18.8331 22.2923C18.9116 22.2923 18.9941 22.2894 19.0797 22.2849C18.4143 22.23 17.3389 21.8295 17.3389 20.5339C17.3389 19.5202 18.1005 18.8353 18.6793 18.5015C18.8351 18.4125 19.017 18.5287 19.017 18.7042V18.996C19.017 19.2185 19.1062 19.5671 19.3176 19.8055C19.557 20.0755 19.908 19.7926 19.936 19.4376C19.9452 19.3258 20.0614 19.2546 20.1612 19.311C20.4878 19.4964 20.905 19.892 20.905 20.5339C20.905 21.5466 20.3298 22.0125 19.8005 22.1939Z" fill="white"/>
<path d="M48.289 21.7383C48.289 17.1905 49.4819 13.6864 51.8304 11.2261C54.1789 8.76578 57.3102 7.53563 61.2243 7.53563C64.3929 7.53563 67.0396 8.31845 69.2017 9.88411C71.3638 11.4498 72.6685 13.5373 73.0785 16.1094H68.0088C67.3005 13.4627 64.7657 11.8598 61.3361 11.8598C58.9504 11.8598 57.0492 12.5681 55.5954 13.9473C54.1416 15.3266 53.4333 17.1905 53.4333 19.539V23.7886C53.4333 25.988 54.1043 27.8146 55.4836 29.1938C56.8628 30.5731 58.6894 31.2814 60.9634 31.2814C63.0882 31.2814 64.8402 30.6476 66.2195 29.3802C67.5987 28.1128 68.3443 26.4353 68.4561 24.3105H59.9569V20.3591H73.8241V35.0464H69.8354L69.4999 30.9459H69.239C67.4869 33.8908 64.1692 35.4192 60.1805 35.4192C56.4528 35.4192 53.5451 34.189 51.4203 31.766C49.3328 29.3429 48.289 25.988 48.289 21.7383ZM77.8099 25.1306C77.8099 18.7189 81.5003 14.9166 87.3156 14.9166C90.0741 14.9166 92.2735 15.7367 93.9137 17.3396C95.5912 18.9425 96.4113 21.1792 96.4113 23.975C96.4113 24.8696 96.374 25.6152 96.2622 26.2116H82.5441V27.2927C82.5441 30.0139 84.4825 31.8032 87.3529 31.8032C89.7014 31.8032 91.3788 30.6476 91.938 28.9702H96.5231C96.1131 30.9086 95.1066 32.4742 93.4291 33.6671C91.7516 34.8227 89.7386 35.4192 87.3529 35.4192C84.3707 35.4192 82.0222 34.4872 80.3447 32.6606C78.6672 30.7968 77.8099 28.2992 77.8099 25.1306ZM82.5441 22.6703V23.043H91.7889V22.5212C91.7889 20.0981 89.9623 18.4952 87.2411 18.4952C84.4452 18.4952 82.5441 20.1727 82.5441 22.6703ZM99.5793 25.1679C99.5793 21.9993 100.437 19.5017 102.189 17.6751C103.941 15.8485 106.327 14.9166 109.271 14.9166C112.179 14.9166 114.528 15.8112 116.317 17.6378C118.106 19.4644 119.001 21.962 119.001 25.1679C119.001 28.2619 118.143 30.7595 116.391 32.6234C114.677 34.4872 112.291 35.4192 109.271 35.4192C106.327 35.4192 103.941 34.4872 102.189 32.6606C100.437 30.834 99.5793 28.3364 99.5793 25.1679ZM104.276 23.6768V26.7708C104.276 29.8648 106.327 31.6169 109.271 31.6169C112.254 31.6169 114.267 29.8648 114.267 26.7708V23.6768C114.267 20.6573 112.254 18.7189 109.271 18.7189C106.252 18.7189 104.276 20.6573 104.276 23.6768ZM128.461 35.0464H123.615V7.87112H142.179V12.158H128.461V20.8437H140.688V24.9442H128.461V35.0464ZM150.575 35.0464H145.99V7.49835H150.575V35.0464ZM154.51 29.3429C154.51 25.5034 157.268 23.2294 161.705 23.2294H167.222V21.9247C167.222 19.6508 166.029 18.5325 163.643 18.5325C161.294 18.5325 160.027 19.539 159.841 21.5147H155.293C155.628 17.3023 158.834 14.9166 163.867 14.9166C166.998 14.9166 169.272 15.9603 170.353 17.4887C171.434 19.0171 171.844 20.4709 171.844 21.9993V31.766H174.453V35.0464H170.651C168.564 35.0464 167.781 34.3008 167.52 32.7725L167.483 31.9524H167.222C166.364 34.0399 163.867 35.4192 160.847 35.4192C156.97 35.4192 154.51 33.0707 154.51 29.3429ZM159.17 28.5228V29.4175C159.17 31.0204 160.4 31.8405 162.338 31.8405C165.32 31.8405 167.222 29.9021 167.222 27.0317V26.1744H162.45C160.363 26.1744 159.17 27.1436 159.17 28.5228ZM181.978 15.2893H188.762V19.0544H182.611V35.0464H177.989V19.2407C177.989 18.197 178.138 17.4887 178.623 16.6313C179.107 15.7739 180.3 15.2893 181.978 15.2893ZM189.897 25.1306C189.897 18.7189 193.587 14.9166 199.403 14.9166C202.161 14.9166 204.361 15.7367 206.001 17.3396C207.678 18.9425 208.498 21.1792 208.498 23.975C208.498 24.8696 208.461 25.6152 208.349 26.2116H194.631V27.2927C194.631 30.0139 196.57 31.8032 199.44 31.8032C201.789 31.8032 203.466 30.6476 204.025 28.9702H208.61C208.2 30.9086 207.194 32.4742 205.516 33.6671C203.839 34.8227 201.826 35.4192 199.44 35.4192C196.458 35.4192 194.109 34.4872 192.432 32.6606C190.754 30.7968 189.897 28.2992 189.897 25.1306ZM194.631 22.6703V23.043H203.876V22.5212C203.876 20.0981 202.049 18.4952 199.328 18.4952C196.532 18.4952 194.631 20.1727 194.631 22.6703Z" fill="white"/>
</svg>
