<svg width="35" height="35" viewBox="0 0 35 35" fill="none" xmlns="http://www.w3.org/2000/svg">
<path d="M17.5 30.6249V30.6395M4.375 13.1249V13.1395M30.625 13.1249V13.1395M11.6667 29.3124C9.67654 28.3417 7.96434 26.8833 6.68943 25.0729C5.41452 23.2626 4.61834 21.1591 4.375 18.9582M23.3333 29.3124C25.3235 28.3417 27.0357 26.8833 28.3106 25.0729C29.5855 23.2626 30.3817 21.1591 30.625 18.9582M9.04167 7.29157C11.3868 5.37234 14.3238 4.32373 17.3542 4.32373C20.3845 4.32373 23.3215 5.37234 25.6667 7.29157" stroke="white" stroke-width="2.91667" stroke-linecap="round" stroke-linejoin="round"/>
<path d="M18.323 23.4147C20.2537 23.0326 22.7502 21.6599 22.7502 18.1106C22.7502 14.8811 20.3581 12.7302 18.638 11.742C18.2556 11.5223 17.8091 11.811 17.8091 12.2474V13.3631C17.8091 14.2433 17.4348 15.8498 16.3947 16.5181C15.8635 16.8593 15.2891 16.3485 15.2248 15.7259L15.1717 15.2144C15.11 14.6199 14.4972 14.2592 14.0167 14.6217C13.1526 15.2718 12.2502 16.4132 12.2502 18.11C12.2502 22.4503 15.517 23.5362 17.15 23.5362C17.2452 23.5362 17.3452 23.5325 17.449 23.527C16.6423 23.4593 15.3385 22.9649 15.3385 21.3657C15.3385 20.1144 16.2619 19.2691 16.9635 18.8571C17.1525 18.7472 17.373 18.8907 17.373 19.1073V19.4675C17.373 19.7421 17.4811 20.1724 17.7374 20.4666C18.0277 20.7999 18.4533 20.4508 18.4872 20.0125C18.4984 19.8746 18.6392 19.7867 18.7602 19.8563C19.1562 20.0851 19.662 20.5734 19.662 21.3657C19.662 22.6157 18.9647 23.1907 18.323 23.4147Z" fill="#54E0FF"/>
</svg>
