<svg width="29" height="29" viewBox="0 0 29 29" fill="none" xmlns="http://www.w3.org/2000/svg">
<path d="M1.3008 1.3008C3.72688 -1.12527 8.9862 -0.0394746 14.5 3.57419C20.0138 -0.0394746 25.2731 -1.12527 27.6992 1.3008C30.1253 3.72688 29.0395 8.9862 25.4258 14.5C29.0395 20.0138 30.1253 25.2731 27.6992 27.6992C25.2731 30.1253 20.0138 29.0395 14.5 25.4258C8.9862 29.0395 3.72688 30.1253 1.3008 27.6992C-1.12527 25.2731 -0.0394746 20.0138 3.57419 14.5C-0.0394746 8.9862 -1.12527 3.72688 1.3008 1.3008ZM20.5058 8.4942C21.5407 9.54606 22.4908 10.6149 23.373 11.6837C25.7142 8.07006 26.5625 4.96536 25.2901 3.70991C24.0346 2.4375 20.9299 3.28577 17.3163 5.62702C18.3851 6.50923 19.4539 7.4593 20.5058 8.4942ZM8.4942 20.5058C7.4593 19.4539 6.50923 18.3851 5.62702 17.3163C3.28577 20.9299 2.4375 24.0346 3.70991 25.2901C4.96536 26.5625 8.07006 25.7142 11.6837 23.373C10.6149 22.4908 9.54606 21.5407 8.4942 20.5058ZM3.70991 3.70991C2.4375 4.96536 3.28577 8.07006 5.62702 11.6837C6.50923 10.6149 7.4593 9.54606 8.4942 8.4942C9.54606 7.4593 10.6149 6.50923 11.6837 5.62702C8.07006 3.28577 4.96536 2.4375 3.70991 3.70991ZM10.9033 18.0967C12.0909 19.2843 13.3124 20.3701 14.5 21.3371C15.6876 20.3701 16.9091 19.2843 18.0967 18.0967C19.2843 16.9091 20.3701 15.6876 21.3371 14.5C20.3701 13.3124 19.2843 12.0909 18.0967 10.9033C16.9091 9.71572 15.6876 8.62992 14.5 7.66288C13.3124 8.62992 12.0909 9.71572 10.9033 10.9033C9.71572 12.0909 8.62992 13.3124 7.66288 14.5C8.62992 15.6876 9.71572 16.9091 10.9033 18.0967ZM25.2901 25.2901C26.5625 24.0346 25.7142 20.9299 23.373 17.3163C22.4908 18.3851 21.5407 19.4539 20.5058 20.5058C19.4539 21.5407 18.3851 22.4908 17.3163 23.373C20.9299 25.7142 24.0346 26.5625 25.2901 25.2901Z" fill="white"/>
<path d="M15.015 17.3382C16.2226 17.0964 17.7841 16.2276 17.7841 13.9812C17.7841 11.9372 16.2879 10.5758 15.212 9.95041C14.9729 9.81133 14.6936 9.99406 14.6936 10.2703V10.9765C14.6936 11.5335 14.4595 12.5503 13.809 12.9733C13.4767 13.1892 13.1175 12.8659 13.0773 12.4719L13.0441 12.1481C13.0054 11.7719 12.6222 11.5436 12.3217 11.773C11.7812 12.1844 11.2168 12.9069 11.2168 13.9808C11.2168 16.7279 13.26 17.4151 14.2814 17.4151C14.3409 17.4151 14.4035 17.4128 14.4684 17.4093C13.9639 17.3664 13.1484 17.0535 13.1484 16.0414C13.1484 15.2494 13.7259 14.7144 14.1647 14.4536C14.283 14.3841 14.4209 14.4749 14.4209 14.612V14.84C14.4209 15.0138 14.4885 15.2861 14.6488 15.4724C14.8304 15.6833 15.0965 15.4623 15.1178 15.1849C15.1247 15.0976 15.2128 15.042 15.2885 15.086C15.5362 15.2309 15.8525 15.54 15.8525 16.0414C15.8525 16.8326 15.4164 17.1965 15.015 17.3382Z" fill="white"/>
</svg>
