<svg width="18" height="15" viewBox="0 0 18 15" fill="none" xmlns="http://www.w3.org/2000/svg">
<path d="M0.833496 15L9.13169 0.666748L17.4299 15H0.833496ZM9.13169 12.7369C9.34544 12.7369 9.52473 12.6644 9.66957 12.5196C9.81441 12.3748 9.88658 12.1957 9.88608 11.9825C9.88608 11.7687 9.81366 11.5897 9.66881 11.4454C9.52397 11.301 9.34493 11.2286 9.13169 11.2281C8.91795 11.2281 8.73891 11.3005 8.59458 11.4454C8.45024 11.5902 8.37782 11.7692 8.37731 11.9825C8.37731 12.1962 8.44973 12.3755 8.59458 12.5203C8.73942 12.6652 8.91846 12.7374 9.13169 12.7369ZM8.37731 10.4737H9.88608V6.7018H8.37731V10.4737Z" fill="#D9A92F"/>
</svg>
